<?xml version="1.0" encoding="UTF-8" standalone="no"?>
<!-- Generator: Adobe Illustrator 14.0.0, SVG Export Plug-In . SVG Version: 6.00 Build 43363)  -->

<svg
   xmlns:dc="http://purl.org/dc/elements/1.1/"
   xmlns:cc="http://creativecommons.org/ns#"
   xmlns:rdf="http://www.w3.org/1999/02/22-rdf-syntax-ns#"
   xmlns:svg="http://www.w3.org/2000/svg"
   xmlns="http://www.w3.org/2000/svg"
   xmlns:sodipodi="http://sodipodi.sourceforge.net/DTD/sodipodi-0.dtd"
   xmlns:inkscape="http://www.inkscape.org/namespaces/inkscape"
   version="1.1"
   id="Layer_2"
   x="0px"
   y="0px"
   width="216px"
   height="216px"
   viewBox="0 0 216 216"
   enable-background="new 0 0 216 216"
   xml:space="preserve"
   inkscape:version="0.48.4 r9939"
   sodipodi:docname="Noisebridge-logo.svg"><metadata
     id="metadata149"><rdf:RDF><cc:Work
         rdf:about=""><dc:format>image/svg+xml</dc:format><dc:type
           rdf:resource="http://purl.org/dc/dcmitype/StillImage" /><dc:title /></cc:Work></rdf:RDF></metadata><defs
     id="defs147" /><sodipodi:namedview
     pagecolor="#ffffff"
     bordercolor="#666666"
     borderopacity="1"
     objecttolerance="10"
     gridtolerance="10"
     guidetolerance="10"
     inkscape:pageopacity="0"
     inkscape:pageshadow="2"
     inkscape:window-width="1865"
     inkscape:window-height="1226"
     id="namedview145"
     showgrid="false"
     inkscape:zoom="6.180637"
     inkscape:cx="78.391402"
     inkscape:cy="138.46357"
     inkscape:window-x="0"
     inkscape:window-y="0"
     inkscape:window-maximized="0"
     inkscape:current-layer="Layer_2" /><path
     d="M180.363,137.547V76.838l-5.525,3.921l-15.065,10.692h-3.374V70.777c0.001-3.516-1.445-6.727-3.75-9.027  c-2.3-2.305-5.511-3.751-9.027-3.75h-17.008c-0.727-4.043-2.67-7.676-5.452-10.455c-3.561-3.566-8.516-5.782-13.954-5.78  c-5.439-0.002-10.395,2.214-13.955,5.781C90.47,50.324,88.528,53.957,87.802,58H70.793c-3.516-0.001-6.727,1.445-9.026,3.75  c-2.305,2.3-3.751,5.511-3.75,9.027v10.74l-22.769,6.178l26.54,7.883l-26.028,7.731l26.028,7.73l-26.028,7.731l26.071,7.743  l-3.814,1.142v15.953c-0.001,3.517,1.445,6.727,3.75,9.027c2.3,2.305,5.511,3.751,9.027,3.75h23.68v-3.5  c0.001-3.528,1.419-6.69,3.729-9.006c2.315-2.31,5.477-3.728,9.005-3.729c3.527,0.002,6.688,1.42,9.003,3.729  c2.311,2.316,3.729,5.478,3.73,9.006v3.5h23.68c3.517,0.001,6.728-1.445,9.027-3.75c2.305-2.301,3.751-5.512,3.75-9.027v-20.678  h3.373L180.363,137.547z M164.387,117.623V96.761l8.977-6.371v33.604L164.387,117.623z M157.387,115.931h-14.234V98.452h14.234  V115.931z M149.398,143.608c-0.001,1.587-0.642,3.015-1.7,4.077c-1.062,1.059-2.49,1.699-4.077,1.7h-17.008  c-0.727-4.044-2.67-7.677-5.452-10.455c-3.561-3.565-8.516-5.782-13.954-5.78c-5.439-0.002-10.395,2.214-13.955,5.78  c-2.782,2.778-4.725,6.411-5.451,10.455H70.793c-1.586-0.001-3.014-0.642-4.077-1.7c-1.058-1.062-1.699-2.491-1.7-4.077v-10.742  l21.314-6.38l-25.985-7.717l26.028-7.73l-26.028-7.73l26.028-7.731l-25.516-7.579l4.159-1.128V70.777  c0.001-1.586,0.642-3.014,1.7-4.077c1.063-1.058,2.491-1.699,4.077-1.7h23.68v-3.5c0.001-3.528,1.419-6.689,3.729-9.005  c2.315-2.31,5.477-3.728,9.005-3.73c3.527,0.001,6.688,1.42,9.003,3.73c2.311,2.316,3.729,5.478,3.73,9.005V65h23.68  c1.587,0.001,3.015,0.642,4.077,1.7c1.059,1.063,1.699,2.491,1.7,4.077v20.675h-13.246v31.479h13.246V143.608z"
     id="path143" /><path
     style="font-size:medium;font-style:normal;font-variant:normal;font-weight:normal;font-stretch:normal;text-indent:0;text-align:start;text-decoration:none;line-height:normal;letter-spacing:normal;word-spacing:normal;text-transform:none;direction:ltr;block-progression:tb;writing-mode:lr-tb;text-anchor:start;baseline-shift:baseline;color:#000000;fill:#000000;fill-opacity:1;stroke:none;stroke-width:6.25;marker:none;visibility:visible;display:inline;overflow:visible;enable-background:accumulate;font-family:Sans;-inkscape-font-specification:Sans"
     d="m 106.20062,28.034929 c -7.32862,0.253317 -14.535264,2.864618 -20.031255,7.75 a 3.1253125,3.1253125 0 1 0 4.15625,4.65625 c 8.475857,-7.534182 23.551855,-8.067258 32.843755,-1.09375 0.62201,0.466819 1.23202,0.953584 1.78125,1.46875 a 3.1253125,3.1253125 0 1 0 4.24999,-4.5625 c -0.71955,-0.674914 -1.48059,-1.305367 -2.28124,-1.90625 -5.94759,-4.463621 -13.39015,-6.565816 -20.71875,-6.3125 z"
     id="path3788"
     inkscape:connector-curvature="0" /><path
     style="font-size:medium;font-style:normal;font-variant:normal;font-weight:normal;font-stretch:normal;text-indent:0;text-align:start;text-decoration:none;line-height:normal;letter-spacing:normal;word-spacing:normal;text-transform:none;direction:ltr;block-progression:tb;writing-mode:lr-tb;text-anchor:start;baseline-shift:baseline;color:#000000;fill:#000000;fill-opacity:1;stroke:none;stroke-width:6.25;marker:none;visibility:visible;display:inline;overflow:visible;enable-background:accumulate;font-family:Sans;-inkscape-font-specification:Sans"
     d="m 110.84554,14.560108 c -4.13921,-0.215584 -8.26438,0.08756 -12.187502,0.84375 -7.84624,1.512389 -14.92722,4.83684 -19.4375,10.15625 a 3.1253125,3.1253125 0 1 0 4.75,4.0625 c 3.20214,-3.776592 9.0519,-6.747324 15.875,-8.0625 6.823102,-1.315176 14.550662,-1.015997 21.312502,1.1875 5.67659,1.849846 9.92705,4.859131 12.09375,8.0625 a 3.1289038,3.1289038 0 1 0 5.1875,-3.5 c -3.22402,-4.766577 -8.68088,-8.328754 -15.34375,-10.5 -3.95521,-1.288893 -8.11079,-2.034416 -12.25,-2.25 z"
     id="path3792"
     inkscape:connector-curvature="0" /></svg>