<?xml version="1.0" encoding="UTF-8" standalone="no"?>
<!-- Created with Inkscape (http://www.inkscape.org/) -->

<svg
   xmlns:dc="http://purl.org/dc/elements/1.1/"
   xmlns:cc="http://creativecommons.org/ns#"
   xmlns:rdf="http://www.w3.org/1999/02/22-rdf-syntax-ns#"
   xmlns:svg="http://www.w3.org/2000/svg"
   xmlns="http://www.w3.org/2000/svg"
   xmlns:sodipodi="http://sodipodi.sourceforge.net/DTD/sodipodi-0.dtd"
   xmlns:inkscape="http://www.inkscape.org/namespaces/inkscape"
   width="1204.7244"
   height="814.96063"
   id="svg2"
   version="1.1"
   inkscape:version="0.48.4 r9939"
   sodipodi:docname="control-terminal.svg">
  <defs
     id="defs4" />
  <sodipodi:namedview
     id="base"
     pagecolor="#ffffff"
     bordercolor="#666666"
     borderopacity="1.0"
     inkscape:pageopacity="0.0"
     inkscape:pageshadow="2"
     inkscape:zoom="0.70310145"
     inkscape:cx="524.42379"
     inkscape:cy="621.5976"
     inkscape:document-units="mm"
     inkscape:current-layer="layer1"
     showgrid="false"
     units="mm"
     inkscape:window-width="1331"
     inkscape:window-height="748"
     inkscape:window-x="-2"
     inkscape:window-y="-3"
     inkscape:window-maximized="1" />
  <metadata
     id="metadata7">
    <rdf:RDF>
      <cc:Work
         rdf:about="">
        <dc:format>image/svg+xml</dc:format>
        <dc:type
           rdf:resource="http://purl.org/dc/dcmitype/StillImage" />
        <dc:title />
      </cc:Work>
    </rdf:RDF>
  </metadata>
  <g
     inkscape:label="Layer 1"
     inkscape:groupmode="layer"
     id="layer1"
     transform="translate(0,-237.40158)">
    <path
       style="fill:none;stroke:#000000;stroke-width:0.70866144;stroke-linejoin:round;stroke-miterlimit:4;stroke-opacity:1"
       d="m 37.628317,254.76382 496.062963,0 c 9.81496,0 17.71653,7.90158 17.71653,17.71654 l 0,496.06296 c 0,9.81496 -7.90157,17.71654 -17.71653,17.71654 l -496.062963,0 c -9.814961,0 -17.716536,-7.90158 -17.716536,-17.71654 l 0,-496.06296 c 0,-9.81496 7.901575,-17.71654 17.716536,-17.71654 z"
       id="rect2985" />
    <path
       style="fill:none;stroke:#000000;stroke-width:0.70866144;stroke-linejoin:round;stroke-miterlimit:4;stroke-opacity:1"
       d="m 588.26323,254.76382 496.06297,0 c 9.8149,0 17.7165,7.90158 17.7165,17.71654 l 0,496.06296 c 0,9.81496 -7.9016,17.71654 -17.7165,17.71654 l -496.06297,0 c -9.81496,0 -17.71654,-7.90158 -17.71654,-17.71654 l 0,-496.06296 c 0,-9.81496 7.90158,-17.71654 17.71654,-17.71654 z"
       id="rect2985-7" />
    <g
       id="g3824"
       transform="translate(113.38583,-340.15748)">
      <path
         style="fill:none;stroke:#000000;stroke-width:0.72399735;stroke-linejoin:round;stroke-miterlimit:4;stroke-opacity:1"
         d="m 51.980495,823.8266 70.369725,0 c 3.07775,0 5.5555,2.36705 5.5555,5.30729 0,2.94024 -2.47775,5.30729 -5.5555,5.30729 l -70.369725,0 c -3.077749,0 -5.555503,-2.36705 -5.555503,-5.30729 0,-2.94024 2.477754,-5.30729 5.555503,-5.30729 z"
         id="rect3773" />
      <path
         transform="matrix(1.3002042,0,0,1.3002043,-61.951189,-11.685499)"
         style="fill:none;stroke:#000000;stroke-width:0.70866144;stroke-linejoin:round;stroke-miterlimit:4;stroke-opacity:1"
         d="m 55.468524,646.95502 c 0,2.06193 -1.671526,3.73346 -3.733459,3.73346 -2.061932,0 -3.733458,-1.67153 -3.733458,-3.73346 0,-2.06193 1.671526,-3.73346 3.733458,-3.73346 2.061933,0 3.733459,1.67153 3.733459,3.73346 z"
         id="path3775" />
      <path
         transform="matrix(1.3002042,0,0,1.3002043,91.651173,-11.685499)"
         style="fill:none;stroke:#000000;stroke-width:0.70866144;stroke-linejoin:round;stroke-miterlimit:4;stroke-opacity:1"
         d="m 55.468524,646.95502 c 0,2.06193 -1.671526,3.73346 -3.733459,3.73346 -2.061932,0 -3.733458,-1.67153 -3.733458,-3.73346 0,-2.06193 1.671526,-3.73346 3.733458,-3.73346 2.061933,0 3.733459,1.67153 3.733459,3.73346 z"
         id="path3775-4" />
      <path
         transform="matrix(1.3002042,0,0,1.3002043,-61.951189,205.87356)"
         style="fill:none;stroke:#000000;stroke-width:0.70866144;stroke-linejoin:round;stroke-miterlimit:4;stroke-opacity:1"
         d="m 55.468524,646.95502 c 0,2.06193 -1.671526,3.73346 -3.733459,3.73346 -2.061932,0 -3.733458,-1.67153 -3.733458,-3.73346 0,-2.06193 1.671526,-3.73346 3.733458,-3.73346 2.061933,0 3.733459,1.67153 3.733459,3.73346 z"
         id="path3775-4-4" />
      <path
         transform="matrix(1.3002042,0,0,1.3002043,91.651173,205.87356)"
         style="fill:none;stroke:#000000;stroke-width:0.70866144;stroke-linejoin:round;stroke-miterlimit:4;stroke-opacity:1"
         d="m 55.468524,646.95502 c 0,2.06193 -1.671526,3.73346 -3.733459,3.73346 -2.061932,0 -3.733458,-1.67153 -3.733458,-3.73346 0,-2.06193 1.671526,-3.73346 3.733458,-3.73346 2.061933,0 3.733459,1.67153 3.733459,3.73346 z"
         id="path3775-4-1" />
    </g>
  </g>
</svg>
