<?xml version="1.0" encoding="UTF-8" standalone="no"?>
<!-- Created with Inkscape (http://www.inkscape.org/) -->

<svg
   xmlns:dc="http://purl.org/dc/elements/1.1/"
   xmlns:cc="http://creativecommons.org/ns#"
   xmlns:rdf="http://www.w3.org/1999/02/22-rdf-syntax-ns#"
   xmlns:svg="http://www.w3.org/2000/svg"
   xmlns="http://www.w3.org/2000/svg"
   xmlns:sodipodi="http://sodipodi.sourceforge.net/DTD/sodipodi-0.dtd"
   xmlns:inkscape="http://www.inkscape.org/namespaces/inkscape"
   width="1204.7244"
   height="814.96063"
   id="svg2"
   version="1.1"
   inkscape:version="0.48.4 r9939"
   sodipodi:docname="control-terminal.svg">
  <defs
     id="defs4" />
  <sodipodi:namedview
     id="base"
     pagecolor="#ffffff"
     bordercolor="#666666"
     borderopacity="1.0"
     inkscape:pageopacity="0.0"
     inkscape:pageshadow="2"
     inkscape:zoom="0.70310145"
     inkscape:cx="524.42379"
     inkscape:cy="621.5976"
     inkscape:document-units="mm"
     inkscape:current-layer="layer1"
     showgrid="false"
     units="mm"
     inkscape:window-width="1331"
     inkscape:window-height="748"
     inkscape:window-x="-2"
     inkscape:window-y="-3"
     inkscape:window-maximized="1" />
  <metadata
     id="metadata7">
    <rdf:RDF>
      <cc:Work
         rdf:about="">
        <dc:format>image/svg+xml</dc:format>
        <dc:type
           rdf:resource="http://purl.org/dc/dcmitype/StillImage" />
        <dc:title />
      </cc:Work>
    </rdf:RDF>
  </metadata>
  <g
     inkscape:label="Layer 1"
     inkscape:groupmode="layer"
     id="layer1"
     transform="translate(0,-237.40158)">
    <rect
       style="fill:none;stroke:#000000;stroke-width:0.70866144;stroke-linejoin:round;stroke-miterlimit:4;stroke-opacity:1;stroke-dasharray:none"
       id="rect2985"
       width="531.49603"
       height="531.49603"
       x="19.911781"
       y="254.76382"
       rx="17.716536"
       ry="17.716536" />
    <rect
       style="fill:none;stroke:#000000;stroke-width:0.70866142;stroke-linejoin:round;stroke-miterlimit:4;stroke-opacity:1;stroke-dasharray:none"
       id="rect2985-7"
       width="531.49603"
       height="531.49603"
       x="570.54669"
       y="254.76382"
       rx="17.716536"
       ry="17.716536" />
    <g
       id="g3824"
       transform="translate(113.38583,-340.15748)">
      <rect
         ry="5.3072925"
         rx="5.5555038"
         y="823.8266"
         x="46.424992"
         height="10.614585"
         width="81.480728"
         id="rect3773"
         style="fill:none;stroke:#000000;stroke-width:0.72399735;stroke-linejoin:round;stroke-miterlimit:4;stroke-opacity:1;stroke-dasharray:none" />
      <path
         transform="matrix(1.3002042,0,0,1.3002043,-61.951189,-11.685499)"
         d="m 55.468524,646.95502 c 0,2.06193 -1.671526,3.73346 -3.733459,3.73346 -2.061932,0 -3.733458,-1.67153 -3.733458,-3.73346 0,-2.06193 1.671526,-3.73346 3.733458,-3.73346 2.061933,0 3.733459,1.67153 3.733459,3.73346 z"
         sodipodi:ry="3.7334583"
         sodipodi:rx="3.7334583"
         sodipodi:cy="646.95502"
         sodipodi:cx="51.735065"
         id="path3775"
         style="fill:none;stroke:#000000;stroke-width:0.70866144;stroke-linejoin:round;stroke-miterlimit:4;stroke-opacity:1;stroke-dasharray:none"
         sodipodi:type="arc" />
      <path
         transform="matrix(1.3002042,0,0,1.3002043,91.651173,-11.685499)"
         d="m 55.468524,646.95502 c 0,2.06193 -1.671526,3.73346 -3.733459,3.73346 -2.061932,0 -3.733458,-1.67153 -3.733458,-3.73346 0,-2.06193 1.671526,-3.73346 3.733458,-3.73346 2.061933,0 3.733459,1.67153 3.733459,3.73346 z"
         sodipodi:ry="3.7334583"
         sodipodi:rx="3.7334583"
         sodipodi:cy="646.95502"
         sodipodi:cx="51.735065"
         id="path3775-4"
         style="fill:none;stroke:#000000;stroke-width:0.70866144;stroke-linejoin:round;stroke-miterlimit:4;stroke-opacity:1;stroke-dasharray:none"
         sodipodi:type="arc" />
      <path
         transform="matrix(1.3002042,0,0,1.3002043,-61.951189,205.87356)"
         d="m 55.468524,646.95502 c 0,2.06193 -1.671526,3.73346 -3.733459,3.73346 -2.061932,0 -3.733458,-1.67153 -3.733458,-3.73346 0,-2.06193 1.671526,-3.73346 3.733458,-3.73346 2.061933,0 3.733459,1.67153 3.733459,3.73346 z"
         sodipodi:ry="3.7334583"
         sodipodi:rx="3.7334583"
         sodipodi:cy="646.95502"
         sodipodi:cx="51.735065"
         id="path3775-4-4"
         style="fill:none;stroke:#000000;stroke-width:0.70866144;stroke-linejoin:round;stroke-miterlimit:4;stroke-opacity:1;stroke-dasharray:none"
         sodipodi:type="arc" />
      <path
         transform="matrix(1.3002042,0,0,1.3002043,91.651173,205.87356)"
         d="m 55.468524,646.95502 c 0,2.06193 -1.671526,3.73346 -3.733459,3.73346 -2.061932,0 -3.733458,-1.67153 -3.733458,-3.73346 0,-2.06193 1.671526,-3.73346 3.733458,-3.73346 2.061933,0 3.733459,1.67153 3.733459,3.73346 z"
         sodipodi:ry="3.7334583"
         sodipodi:rx="3.7334583"
         sodipodi:cy="646.95502"
         sodipodi:cx="51.735065"
         id="path3775-4-1"
         style="fill:none;stroke:#000000;stroke-width:0.70866144;stroke-linejoin:round;stroke-miterlimit:4;stroke-opacity:1;stroke-dasharray:none"
         sodipodi:type="arc" />
    </g>
  </g>
</svg>
